<?xml version="1.0" encoding="UTF-8"?>
<svg id="Camada_2" data-name="Camada 2" xmlns="http://www.w3.org/2000/svg" viewBox="0 0 28.56 28.56">
  <defs>
    <style>
      .cls-1 {
        fill: #007eff;
      }

      .cls-2 {
        fill: #00645a;
      }
    </style>
  </defs>
  <g id="Camada_1-2" data-name="Camada 1">
    <g>
      <path class="cls-2" d="m9.64,20.11c-1.17,0-2.34-.02-3.51,0-.55.01-.99-.21-1.35-.57-1.21-1.18-2.4-2.39-3.6-3.58-.21-.21-.4-.43-.59-.66-.3-.37-.33-.79-.29-1.24.01-.18.15-.29.25-.43.57-.77,1.29-1.39,1.96-2.06,3.53-3.54,7.06-7.07,10.59-10.6.14-.14.28-.28.42-.42.26-.25.3-.24.55,0,.88.89,1.76,1.77,2.63,2.66.37.37.73.76,1.12,1.11.22.19.15.31-.01.47-1.04,1.04-2.08,2.07-3.12,3.1-2.01,1.98-4,3.98-6,5.98-.06.06-.12.13-.18.2-.27.33-.26.56.06.85,1.58,1.4,3.01,2.96,4.51,4.44.16.16.32.33.47.5.05.06.13.12.1.2-.04.09-.14.06-.21.06-.68,0-1.37,0-2.05,0-.58,0-1.17,0-1.75,0,0,0,0,0,0,0Z"/>
      <path class="cls-1" d="m18.45,8.87c.98-.02,2.17.02,3.36.04.43,0,.79.16,1.09.46,1.23,1.21,2.45,2.41,3.67,3.63.26.26.49.55.71.84.26.34.19.97-.11,1.4-.56.79-1.27,1.44-1.95,2.12-3.24,3.24-6.48,6.48-9.72,9.71-.36.36-.74.71-1.13,1.06-.44.39-.65.38-1.05-.03-1.05-1.06-2.09-2.11-3.14-3.17-.34-.35-.34-.51.01-.86,2.83-2.83,5.65-5.65,8.47-8.48.24-.25.47-.51.7-.77.24-.28.23-.38-.04-.68-.79-.9-1.68-1.71-2.5-2.58-.79-.84-1.61-1.64-2.43-2.44-.05-.05-.12-.09-.09-.17.04-.09.14-.05.22-.05,1.24,0,2.48,0,3.93,0Z"/>
    </g>
  </g>
</svg>